# File created by Blade
# Date/Time:  Fri Jan 16 19:32:17 2015
# Frame Rate: 120.000 fps
#------------------------------------------------------
:FULLY-SPECIFIED
:DEGREES
355
root 19.725033 35.425493 -19.514373 14.191150 13.410451 0.337039
Spine -28.982131 -11.828885 -0.404116
Head 16.621394 -2.209769 8.262289
LeftShoulder -4.991094 -1.610130 -8.138467
LeftArm -105.496749 57.135562 -206.601361
LeftForeArm 47.620868 -0.000000 136.310084
LeftHand 11.940188 0.000000 -20.930231
LeftHandThumb1 -26.253704 0.000000 33.147579
RightShoulder -18.419216 28.974055 -39.314671
RightArm -206.606366 52.112798 -253.378689
RightForeArm 13.453525 -0.000000 151.857144
RightHand 3.369647 0.000000 -10.457082
RightHandThumb1 -24.326973 -0.000000 -32.862282
LeftUpLeg -3.976663 -0.826995 1.559812
LeftLeg -7.995078 -0.000000 0.000000
LeftFoot -19.465772 26.134000 -13.634866
LeftToeBase 25.670395 -0.000000 -0.000000
RightUpLeg -1.147370 -17.895075 0.042208
RightLeg -5.257811 -0.000000 0.000000
RightFoot -23.749085 -25.025957 21.912704
RightToeBase 23.063702 -0.000000 -0.000000
356
root 19.730696 35.424772 -19.507588 14.157611 13.354815 0.318817
Spine -28.973746 -11.754372 -0.391841
Head 16.677904 -2.230325 8.235887
LeftShoulder -5.089294 -1.564222 -8.162959
LeftArm -105.241268 57.006132 -206.225270
LeftForeArm 47.675262 -0.000000 136.420977
LeftHand 12.009416 -0.000000 -21.179074
LeftHandThumb1 -26.253704 0.000000 33.147579
RightShoulder -18.434363 28.952126 -39.373932
RightArm -206.427730 52.180685 -253.247404
RightForeArm 13.607027 -0.000000 151.816145
RightHand 3.405902 -0.000000 -10.436736
RightHandThumb1 -24.326973 -0.000000 -32.862282
LeftUpLeg -3.905649 -0.746599 1.551325
LeftLeg -8.034514 -0.000000 0.000000
LeftFoot -19.463161 26.116241 -13.622288
LeftToeBase 25.626183 -0.000000 -0.000000
RightUpLeg -1.113062 -17.836174 0.025732
RightLeg -5.249520 -0.000000 0.000000
RightFoot -23.744332 -25.006783 21.941577
RightToeBase 23.060851 -0.000000 -0.000000
357
root 19.731793 35.424457 -19.505632 14.150411 13.375109 0.328504
Spine -28.971139 -11.764882 -0.413805
Head 16.736136 -2.287394 8.237665
LeftShoulder -5.153629 -1.522108 -8.119453
LeftArm -105.239499 56.976363 -206.209017
LeftForeArm 47.793802 -0.000000 136.474696
LeftHand 11.855654 -0.000000 -21.184294
LeftHandThumb1 -26.253704 0.000000 33.147579
RightShoulder -18.483275 28.912808 -39.405695
RightArm -206.248627 52.238808 -253.110423
RightForeArm 13.762237 -0.000000 151.792211
RightHand 3.421819 -0.000000 -10.381552
RightHandThumb1 -24.326973 -0.000000 -32.862282
LeftUpLeg -3.900962 -0.745138 1.542367
LeftLeg -8.026776 -0.000000 0.000000
LeftFoot -19.455786 26.108178 -13.607854
LeftToeBase 25.618181 -0.000000 -0.000000
RightUpLeg -1.097826 -17.845246 0.014530
RightLeg -5.246632 -0.000000 0.000000
RightFoot -23.762207 -25.008016 21.955207
RightToeBase 23.032288 -0.000000 -0.000000
358
root 19.725888 35.425583 -19.515293 14.240614 13.399723 0.332669
Spine -29.058783 -11.786150 -0.417340
Head 16.766536 -2.331516 8.244761
LeftShoulder -5.196364 -1.491165 -8.101271
LeftArm -105.157685 56.905388 -206.083904
LeftForeArm 47.869115 0.000000 136.572394
LeftHand 11.829937 -0.000000 -21.292885
LeftHandThumb1 -26.253704 0.000000 33.147579
RightShoulder -18.529501 28.905387 -39.457980
RightArm -206.056570 52.318795 -252.927635
RightForeArm 13.990974 -0.000000 151.747956
RightHand 3.465958 0.000000 -10.313199
RightHandThumb1 -24.326973 -0.000000 -32.862282
LeftUpLeg -4.035630 -0.750334 1.553702
LeftLeg -7.975884 -0.000000 0.000000
LeftFoot -19.449511 26.071566 -13.584353
LeftToeBase 25.635300 -0.000000 -0.000000
RightUpLeg -1.224602 -17.818442 0.055342
RightLeg -5.207342 -0.000000 0.000000
RightFoot -23.791992 -25.062656 21.938984
RightToeBase 23.019902 -0.000000 -0.000000
359
root 19.725458 35.424575 -19.515647 14.251428 13.436593 0.345977
Spine -29.070717 -11.831146 -0.427175
Head 16.803043 -2.349071 8.243741
LeftShoulder -5.258664 -1.456084 -8.062098
LeftArm -105.089697 56.868298 -205.982237
LeftForeArm 47.879763 0.000000 136.662231
LeftHand 11.805399 -0.000000 -21.381271
LeftHandThumb1 -26.253704 0.000000 33.147579
RightShoulder -18.550026 28.889857 -39.505069
RightArm -205.816183 52.400907 -252.678414
RightForeArm 14.242978 -0.000000 151.678013
RightHand 3.566554 0.000000 -10.200423
RightHandThumb1 -24.326973 -0.000000 -32.862282
LeftUpLeg -4.058626 -0.755965 1.544740
LeftLeg -7.961379 -0.000000 0.000000
LeftFoot -19.463247 26.045704 -13.579295
LeftToeBase 25.674050 -0.000000 -0.000000
RightUpLeg -1.225452 -17.841591 0.050825
RightLeg -5.212208 -0.000000 0.000000
RightFoot -23.818417 -25.067732 21.946139
RightToeBase 23.049857 -0.000000 -0.000000
360
root 19.726301 35.423834 -19.513679 14.251317 13.477723 0.366296
Spine -29.071878 -11.899869 -0.440550
Head 16.834523 -2.370995 8.239247
LeftShoulder -5.342976 -1.387211 -8.027116
LeftArm -104.995740 56.834226 -205.854433
LeftForeArm 47.870657 -0.000000 136.731069
LeftHand 11.847013 -0.000000 -21.498348
LeftHandThumb1 -26.253704 0.000000 33.147579
RightShoulder -18.589099 28.921793 -39.562531
RightArm -205.628255 52.453192 -252.480973
RightForeArm 14.474121 -0.000000 151.619658
RightHand 3.619877 -0.000000 -10.078091
RightHandThumb1 -24.326973 -0.000000 -32.862282
LeftUpLeg -4.057494 -0.774319 1.531198
LeftLeg -7.960652 -0.000000 0.000000
LeftFoot -19.453429 26.022094 -13.582593
LeftToeBase 25.651793 -0.000000 -0.000000
RightUpLeg -1.202435 -17.884359 0.035772
RightLeg -5.226817 -0.000000 0.000000
RightFoot -23.825878 -25.061108 21.954398
RightToeBase 23.026264 -0.000000 -0.000000
361
root 19.727690 35.422521 -19.512301 14.258084 13.515204 0.386942
Spine -29.084354 -11.961300 -0.445379
Head 16.870877 -2.353215 8.230107
LeftShoulder -5.417427 -1.324783 -8.000261
LeftArm -104.877443 56.834186 -205.695913
LeftForeArm 47.923352 -0.000000 136.916264
LeftHand 11.953162 -0.000000 -21.664987
LeftHandThumb1 -26.253704 0.000000 33.147579
RightShoulder -18.643215 28.962750 -39.647832
RightArm -205.483436 52.485203 -252.275189
RightForeArm 14.650051 -0.000000 151.578426
RightHand 3.686273 -0.000000 -9.971241
RightHandThumb1 -24.326973 -0.000000 -32.862282
LeftUpLeg -4.056088 -0.784685 1.516279
LeftLeg -7.973589 -0.000000 0.000000
LeftFoot -19.427736 25.996945 -13.558451
LeftToeBase 25.626339 -0.000000 -0.000000
RightUpLeg -1.186496 -17.931558 0.021387
RightLeg -5.245516 -0.000000 0.000000
RightFoot -23.838310 -25.055203 21.956977
RightToeBase 23.058746 -0.000000 -0.000000
362
root 19.727748 35.421522 -19.512691 14.263454 13.555131 0.401656
Spine -29.085858 -12.024175 -0.443895
Head 16.880668 -2.354515 8.203224
LeftShoulder -5.475934 -1.255113 -7.981584
LeftArm -104.808042 56.829810 -205.605993
LeftForeArm 47.930945 -0.000000 136.987307
LeftHand 11.946061 -0.000000 -21.763920
LeftHandThumb1 -26.253704 0.000000 33.147579
RightShoulder -18.722926 29.134299 -39.779362
RightArm -205.510830 52.580989 -252.213253
RightForeArm 14.734200 -0.000000 151.554805
RightHand 3.638533 -0.000000 -9.961228
RightHandThumb1 -24.326973 -0.000000 -32.862282
LeftUpLeg -4.063085 -0.807631 1.510029
LeftLeg -7.977000 -0.000000 0.000000
LeftFoot -19.426617 25.975069 -13.549770
LeftToeBase 25.679711 -0.000000 -0.000000
RightUpLeg -1.175777 -17.955745 0.012300
RightLeg -5.255188 -0.000000 0.000000
RightFoot -23.849321 -25.063111 21.951682
RightToeBase 23.051601 -0.000000 -0.000000
